<?xml version="1.0" encoding="UTF-8"?>
<svg id="Layer_1" data-name="Layer 1" xmlns="http://www.w3.org/2000/svg" viewBox="0 0 834.03 324.54">
  <defs>
    <style>
      .cls-1 {
        fill: #fff;
        stroke-width: 0px;
      }
    </style>
  </defs>
  <path class="cls-1" d="m295.04,141.4c-1.99-3.97-2.98-8.53-2.98-13.7v-34.85h15.8v35.58c0,3.68.91,6.42,2.72,8.2,1.81,1.78,4.36,2.68,7.64,2.68s5.82-.89,7.62-2.68c1.8-1.78,2.7-4.52,2.7-8.2v-35.58h15.84v34.85c0,5.14-.99,9.69-2.98,13.66-1.98,3.97-4.92,7.08-8.8,9.33-3.88,2.25-8.68,3.38-14.38,3.38s-10.51-1.12-14.39-3.36c-3.88-2.24-6.81-5.34-8.8-9.31Zm93.53-11.95v23.34h15.59v-28.26c0-2.94-.65-5.72-1.95-8.33s-3.29-4.73-5.97-6.36c-2.68-1.63-6.12-2.44-10.32-2.44-2.46,0-4.77.45-6.93,1.35-2.17.9-4.04,2.33-5.61,4.3v-4.37h-15.59v44.1h15.59v-23.12c0-1.6.3-3.02.92-4.26.61-1.24,1.5-2.21,2.65-2.89,1.16-.69,2.53-1.03,4.13-1.03,2.51,0,4.39.7,5.63,2.1,1.24,1.4,1.86,3.35,1.86,5.87Zm35.41-43.76c-2.46,0-4.59.76-6.4,2.27-1.81,1.51-2.72,3.57-2.72,6.16s.91,4.69,2.72,6.19c1.81,1.5,3.95,2.25,6.4,2.25s4.59-.75,6.4-2.25c1.81-1.5,2.72-3.56,2.72-6.19s-.91-4.65-2.72-6.16c-1.81-1.51-3.95-2.27-6.4-2.27Zm7.79,22.99h-15.59v44.1h15.59v-44.1Zm35.71,44.1l7.37-25.18,6.98,25.18h15.37l13.02-44.1h-14.47l-6.21,26.25-7.37-26.25h-14.17l-7.53,26.25-6.38-26.25h-14.99l13.02,44.1h15.37Zm49.77-9.83c-2.04-3.5-3.06-7.59-3.06-12.27,0-3.43.6-6.56,1.8-9.4,1.2-2.84,2.88-5.29,5.05-7.36,2.17-2.07,4.73-3.68,7.68-4.82,2.96-1.14,6.2-1.71,9.74-1.71,3.97,0,7.49.69,10.56,2.08,3.07,1.39,5.6,3.33,7.6,5.82,2,2.5,3.38,5.42,4.13,8.76.76,3.34.75,6.99-.02,10.96h-32.46c.09,1.43.59,2.68,1.52,3.77.92,1.09,2.19,1.94,3.79,2.55,1.6.61,3.44.92,5.52.92,2.65,0,5.14-.32,7.45-.96,2.31-.64,4.58-1.66,6.81-3.06l4.71,10.4c-1.34,1.03-3.11,1.95-5.29,2.76-2.18.81-4.52,1.46-7,1.95-2.48.48-4.84.73-7.06.73-4.91,0-9.21-.98-12.89-2.93-3.68-1.96-6.54-4.68-8.59-8.18Zm12.01-18.26h16.74c-.03-1.88-.76-3.39-2.21-4.52-1.44-1.13-3.36-1.69-5.76-1.69s-4.45.56-6.06,1.69c-1.61,1.13-2.52,2.63-2.72,4.52Zm68.72-17.38c-2.54,0-4.87.5-7,1.5-2.13,1-3.79,2.58-4.99,4.75v-4.88h-15.59v44.1h15.59v-21.92c0-2.77.79-4.83,2.38-6.19,1.58-1.36,3.6-2.03,6.06-2.03,1.11,0,2.25.11,3.4.32,1.15.21,2.23.52,3.23.92l1.8-15.97c-.74-.14-1.49-.28-2.25-.41-.76-.13-1.64-.19-2.64-.19Zm34.17,34.44c-1.06.5-2.6.75-4.63.75-2.42,0-5.03-.44-7.81-1.33-2.78-.88-5.43-2.08-7.94-3.6l-4.67,10.58c2.57,1.86,5.58,3.29,9.03,4.3,3.45,1.01,7.29,1.52,11.52,1.52,3.91,0,7.35-.62,10.32-1.86,2.97-1.24,5.29-3,6.96-5.27,1.67-2.27,2.51-4.92,2.51-7.94,0-3.94-1.34-6.99-4.02-9.16-2.68-2.17-7.25-3.9-13.7-5.18-2.94-.63-4.86-1.14-5.76-1.54-.9-.4-1.35-1.03-1.35-1.88s.54-1.51,1.61-1.97c1.07-.46,2.49-.69,4.26-.69,1.51,0,3.11.19,4.77.56,1.67.37,3.28.89,4.84,1.56,1.55.67,2.95,1.45,4.18,2.33l4.49-10.57c-2.31-1.66-5.11-2.97-8.39-3.94-3.28-.97-6.75-1.46-10.4-1.46s-7.04.61-9.91,1.82c-2.87,1.21-5.12,2.92-6.77,5.12-1.64,2.2-2.46,4.77-2.46,7.71,0,4.17,1.41,7.44,4.24,9.81,2.83,2.37,7.28,4.04,13.36,5.01,2.94.49,4.9.91,5.87,1.28.97.37,1.45.99,1.45,1.84,0,.97-.53,1.71-1.58,2.21Zm45.6-4.09l-8.99-28.99h-16.83l17.04,44.1-.43,1.37c-.4,1.37-1.14,2.34-2.23,2.91-1.09.57-2.34.86-3.77.86-1.03,0-2.11-.14-3.25-.43-1.14-.29-2.18-.67-3.13-1.16l-3.25,12.97c1.68.88,3.55,1.53,5.59,1.95,2.04.41,4.13.62,6.27.62,2.77,0,5.4-.49,7.88-1.46,2.49-.97,4.77-2.58,6.85-4.82,2.08-2.24,3.88-5.26,5.4-9.06l18.03-47.87h-16.44l-8.73,28.99Zm35.58-.51c0,5.6,1.43,9.81,4.3,12.65,2.87,2.84,6.84,4.26,11.93,4.26,2.25,0,4.38-.28,6.38-.84,2-.56,3.67-1.22,5.01-1.99l-1.84-12.16c-.74.43-1.55.75-2.42.96-.87.21-1.73.32-2.59.32-1.46,0-2.68-.43-3.68-1.28-1-.86-1.5-2.34-1.5-4.45v-13.7h9.76v-12.25h-9.76v-12.54h-15.59v12.54h-8.18v12.25h8.18v16.23Zm45.09,13.98c-3.68-1.96-6.54-4.68-8.59-8.18-2.04-3.5-3.06-7.59-3.06-12.27,0-3.43.6-6.56,1.8-9.4,1.2-2.84,2.88-5.29,5.05-7.36,2.17-2.07,4.73-3.68,7.68-4.82,2.96-1.14,6.2-1.71,9.74-1.71,3.97,0,7.49.69,10.56,2.08,3.07,1.39,5.6,3.33,7.6,5.82,2,2.5,3.38,5.42,4.13,8.76.76,3.34.75,6.99-.02,10.96h-32.46c.09,1.43.59,2.68,1.52,3.77.92,1.09,2.19,1.94,3.79,2.55,1.6.61,3.44.92,5.52.92,2.65,0,5.14-.32,7.45-.96,2.31-.64,4.58-1.66,6.81-3.06l4.71,10.4c-1.34,1.03-3.11,1.95-5.29,2.76-2.18.81-4.52,1.46-7,1.95-2.48.48-4.84.73-7.06.73-4.91,0-9.21-.98-12.89-2.93Zm3.43-26.44h16.74c-.03-1.88-.76-3.39-2.21-4.52-1.44-1.13-3.36-1.69-5.76-1.69s-4.45.56-6.06,1.69c-1.61,1.13-2.52,2.63-2.72,4.52Zm70.34,14.39c-.74.43-1.55.75-2.42.96-.87.21-1.73.32-2.59.32-1.46,0-2.68-.43-3.68-1.28-1-.86-1.5-2.34-1.5-4.45v-13.7h9.76v-12.25h-9.76v-12.54h-15.59v12.54h-8.18v12.25h8.18v16.23c0,5.6,1.43,9.81,4.3,12.65,2.87,2.84,6.84,4.26,11.93,4.26,2.25,0,4.38-.28,6.38-.84,2-.56,3.67-1.22,5.01-1.99l-1.84-12.16Zm-495.68,90.49l-7.37-26.25h-14.17l-7.53,26.25-6.38-26.25h-14.99l13.02,44.1h15.37l7.37-25.18,6.98,25.18h15.37l13.02-44.1h-14.47l-6.21,26.25Zm77.67-18.2l-4.8-1.41c-2.2-.63-3.94-1.2-5.22-1.71-1.29-.51-2.2-1.06-2.74-1.63-.54-.57-.81-1.28-.81-2.14,0-1,.34-1.88,1.03-2.63.69-.76,1.66-1.35,2.93-1.78,1.27-.43,2.75-.64,4.43-.64,1.91,0,3.81.25,5.69.75,1.89.5,3.62,1.19,5.2,2.08,1.58.88,2.9,1.9,3.96,3.04l7.62-11.35c-2.46-2.4-5.7-4.27-9.74-5.63-4.04-1.36-8.4-2.03-13.08-2.03-3.31,0-6.39.47-9.23,1.41-2.84.94-5.31,2.27-7.41,3.98-2.1,1.71-3.72,3.72-4.88,6.04s-1.74,4.81-1.74,7.49c0,4.25,1.38,7.91,4.13,10.96,2.75,3.05,7.3,5.45,13.64,7.19l4.8,1.33c3.34.89,5.63,1.78,6.87,2.68,1.24.9,1.86,2.03,1.86,3.4,0,1.54-.83,2.72-2.5,3.53-1.67.81-3.8,1.22-6.4,1.22-2.05,0-4.2-.27-6.42-.81-2.23-.54-4.32-1.31-6.27-2.31-1.96-1-3.55-2.17-4.77-3.51l-7.37,11.65c3.05,2.66,6.79,4.68,11.2,6.08s8.96,2.1,13.64,2.1c4.91,0,9.18-.83,12.82-2.48s6.45-3.97,8.43-6.94c1.98-2.97,2.98-6.39,2.98-10.28,0-4.37-1.4-7.93-4.2-10.7-2.8-2.77-7.35-5.08-13.66-6.94Zm27.27,36.05h15.59v-44.1h-15.59v44.1Zm7.79-67.09c-2.46,0-4.59.76-6.4,2.27-1.81,1.51-2.72,3.57-2.72,6.16s.91,4.69,2.72,6.19c1.81,1.5,3.95,2.25,6.4,2.25s4.59-.75,6.4-2.25c1.81-1.5,2.72-3.56,2.72-6.19s-.91-4.65-2.72-6.16c-1.81-1.51-3.95-2.27-6.4-2.27Zm63.39,38.36c.76,3.34.75,6.99-.02,10.96h-32.46c.09,1.43.59,2.68,1.52,3.77.92,1.09,2.19,1.94,3.79,2.55,1.6.61,3.44.92,5.52.92,2.65,0,5.14-.32,7.45-.96,2.31-.64,4.58-1.66,6.81-3.06l4.71,10.4c-1.34,1.03-3.11,1.95-5.29,2.76s-4.52,1.46-7,1.95c-2.48.49-4.84.73-7.06.73-4.91,0-9.21-.98-12.89-2.93-3.68-1.96-6.54-4.68-8.59-8.18-2.04-3.5-3.06-7.59-3.06-12.27,0-3.43.6-6.56,1.8-9.4,1.2-2.84,2.88-5.29,5.05-7.36,2.17-2.07,4.73-3.68,7.68-4.82,2.96-1.14,6.2-1.71,9.74-1.71,3.97,0,7.49.69,10.56,2.08,3.07,1.39,5.6,3.33,7.6,5.82,2,2.5,3.38,5.42,4.13,8.76Zm-14.75.64c-.03-1.88-.76-3.39-2.21-4.52-1.44-1.13-3.36-1.69-5.76-1.69s-4.45.56-6.06,1.69c-1.61,1.13-2.52,2.63-2.72,4.52h16.74Zm55.19-33.57h15.59v61.66h-13.31v-4.74c-1.08,1.3-2.41,2.45-4.05,3.41-2.96,1.74-6.47,2.61-10.56,2.61s-7.91-.96-11.22-2.87c-3.31-1.91-5.92-4.62-7.81-8.11-1.9-3.5-2.85-7.61-2.85-12.35,0-3.31.54-6.38,1.63-9.21,1.08-2.83,2.62-5.29,4.6-7.41,1.98-2.11,4.33-3.76,7.02-4.95,2.7-1.18,5.67-1.78,8.93-1.78s6.07.61,8.69,1.84c1.18.55,2.28,1.26,3.34,2.08v-20.19Zm.09,39.61c0-2.05-.42-3.83-1.24-5.33-.83-1.5-1.96-2.65-3.4-3.47-1.44-.81-3.08-1.22-4.9-1.22s-3.46.41-4.9,1.22c-1.44.81-2.58,1.97-3.4,3.47-.83,1.5-1.24,3.28-1.24,5.33s.41,3.83,1.24,5.33c.83,1.5,1.97,2.66,3.43,3.47,1.45.81,3.08,1.22,4.88,1.22s3.42-.41,4.86-1.22c1.44-.81,2.58-1.97,3.43-3.47.84-1.5,1.26-3.27,1.26-5.33Zm28,22.05h15.59v-61.66h-15.59v61.66Zm56.5-13.17c-1.81.76-3.72,1.13-5.72,1.13-3.34,0-5.96-.88-7.88-2.65-1.91-1.77-2.87-4.22-2.87-7.37,0-2.14.43-3.95,1.28-5.44.86-1.48,2.08-2.62,3.66-3.4s3.5-1.18,5.76-1.18c1.8,0,3.52.31,5.16.92,1.64.61,3.18,1.59,4.6,2.93l6.76-11.52c-2.37-1.86-5.03-3.26-7.98-4.22-2.96-.96-6.15-1.44-9.57-1.44s-6.84.59-9.89,1.76c-3.05,1.17-5.72,2.81-7.99,4.92-2.27,2.11-4.04,4.59-5.31,7.43-1.27,2.84-1.9,5.92-1.9,9.23,0,4.45,1.07,8.43,3.21,11.95,2.14,3.51,5.07,6.29,8.78,8.33,3.71,2.04,7.9,3.06,12.59,3.06,3.26,0,6.52-.54,9.81-1.61,3.28-1.07,6.17-2.55,8.65-4.43l-6.08-11.78c-1.57,1.49-3.26,2.61-5.07,3.36Zm56.34-24.43c1.84,2.83,2.76,6.47,2.76,10.92v26.67h-13.36v-4.5c-1.37,1.86-3.27,3.28-5.7,4.28-2.42,1-5.21,1.5-8.35,1.5-2.88,0-5.49-.56-7.84-1.69-2.34-1.13-4.21-2.75-5.59-4.88-1.39-2.13-2.08-4.69-2.08-7.68,0-2.6.63-4.88,1.9-6.85,1.27-1.97,3.17-3.58,5.69-4.84,2.53-1.26,5.68-2.11,9.46-2.57,3.2-.38,6.86-.44,10.93-.19-.1-1.07-.38-2.05-.85-2.94-.6-1.14-1.57-2.03-2.91-2.67-1.34-.64-3.17-.96-5.48-.96s-4.54.34-6.77,1.03-4.21,1.67-5.95,2.96l-3.9-10.49c2.91-1.8,6.04-3.13,9.38-4,3.34-.87,6.62-1.31,9.85-1.31,4.2,0,7.91.66,11.15,1.99,3.24,1.33,5.78,3.4,7.62,6.23Zm-12.1,20.64v-1.22c-1.45-.21-2.86-.37-4.15-.4-1.97-.06-3.68.08-5.14.41-1.46.33-2.58.85-3.38,1.56-.8.71-1.2,1.64-1.2,2.78,0,1.34.52,2.35,1.56,3.02,1.04.67,2.42,1.01,4.13,1.01,1.54,0,2.93-.26,4.15-.77,1.23-.52,2.21-1.3,2.93-2.36.73-1.06,1.09-2.4,1.09-4.02Zm55.21,3.79c-1.81.76-3.72,1.13-5.72,1.13-3.34,0-5.96-.88-7.88-2.65-1.91-1.77-2.87-4.22-2.87-7.37,0-2.14.43-3.95,1.28-5.44.86-1.48,2.08-2.62,3.66-3.4s3.5-1.18,5.76-1.18c1.8,0,3.52.31,5.16.92,1.64.61,3.18,1.59,4.6,2.93l6.76-11.52c-2.37-1.86-5.03-3.26-7.98-4.22-2.96-.96-6.15-1.44-9.57-1.44s-6.84.59-9.89,1.76c-3.05,1.17-5.72,2.81-7.99,4.92-2.27,2.11-4.04,4.59-5.31,7.43-1.27,2.84-1.9,5.92-1.9,9.23,0,4.45,1.07,8.43,3.21,11.95,2.14,3.51,5.07,6.29,8.78,8.33,3.71,2.04,7.9,3.06,12.59,3.06,3.26,0,6.52-.54,9.81-1.61,3.28-1.07,6.17-2.55,8.65-4.43l-6.08-11.78c-1.57,1.49-3.26,2.61-5.07,3.36Zm57.37-29.76c-2.76-1.64-6.23-2.46-10.43-2.46-3.17,0-6.05.69-8.65,2.08-1.22.65-2.36,1.41-3.43,2.25v-20.6h-15.59v61.66h15.59v-23.04c0-1.71.28-3.2.86-4.45.57-1.26,1.42-2.21,2.55-2.87,1.13-.66,2.52-.97,4.17-.94,2.4,0,4.27.74,5.61,2.23,1.34,1.49,2.01,3.41,2.01,5.78v23.29h15.59v-27.66c0-3.14-.69-6.06-2.08-8.76-1.39-2.7-3.46-4.87-6.21-6.51ZM111.85,324.54c-32.24-14.65-58.07-34.71-76.82-59.67l39.09-22.55c9.95,12.17,22.03,22.55,38.2,32.25,25.55-14.25,45.78-37.49,54.4-59.13l-54.42-31.39-93.6,54.23C11.92,224.52,0,195.47,0,152.17V61.08s45.32-25.25,45.32-25.25v20.28s34.78-20.85,34.78-20.85v-17.72S112.34,0,112.34,0l30.88,16.84v18.42s34.8,20.85,34.8,20.85v-20.31s45.42,24.75,45.42,24.75c0,0,.11,65.4,0,91.6-.02,3.52-.06,5.78-.23,8.57l-44.6-25.93v-26.32l-66.3-37.75-67.18,38.83-.49,42.59c0,11.84.98,18.87.98,18.87l66.73-38.38,107.22,61.53c-14.38,74.82-65.24,112.2-107.71,130.35Z"/>
</svg>